<?xml version="1.0" encoding="utf-8" ?>
<svg baseProfile="full" height="200mm" version="1.1" viewBox="0,0,200,200" width="200mm" xmlns="http://www.w3.org/2000/svg" xmlns:ev="http://www.w3.org/2001/xml-events" xmlns:xlink="http://www.w3.org/1999/xlink"><defs /><rect fill="#1a1a1a" height="200" width="200" x="0" y="0" /><text alignment-baseline="middle" fill="#e1ed5e" style="dominant-baseline: central; font-size:9.0px; font-family:Arial;" text-anchor="middle" x="100.0" y="100.0">2024</text><line stroke="#e1ed5e" stroke-width="0.3" x1="100.0" x2="100.0" y1="15.0" y2="10.0" /><path d="M 100.0 14.0 a86.0,86.0 0 0,1 42.35913384403234,11.155469271406648" fill="none" id="id1" stroke="none" /><text fill="#e1ed5e" style="font-size:6.75px; font-family:Arial;" text-anchor="middle"><textPath startOffset="22.145653131862478" xlink:href="#id1">January</textPath></text><line stroke="#e1ed5e" stroke-width="0.3" x1="143.13028292997686" x2="145.6673583964461" y1="26.7553504044142" y2="22.446841604673864" /><path d="M 143.63769802327073 25.89364864446614 a86.0,86.0 0 0,1 29.32050498858742,28.57503671076993" fill="none" id="id2" stroke="none" /><text fill="#e1ed5e" style="font-size:6.75px; font-family:Arial;" text-anchor="middle"><textPath startOffset="20.669276256404974" xlink:href="#id2">February</textPath></text><line stroke="#e1ed5e" stroke-width="0.3" x1="172.87174338648825" x2="177.1583165268699" y1="56.24261187166439" y2="53.66864786411523" /><path d="M 173.72905801456457 55.72781907015455 a86.0,86.0 0 0,1 12.242430191666344,42.057860355516425" fill="none" id="id3" stroke="none" /><text fill="#e1ed5e" style="font-size:6.75px; font-family:Arial;" text-anchor="middle"><textPath startOffset="22.145653131862474" xlink:href="#id3">March</textPath></text><line stroke="#e1ed5e" stroke-width="0.3" x1="184.99686870605535" x2="189.99668451229388" y1="99.2704041080226" y2="99.22748670261217" /><path d="M 185.99683186730306 99.26182062694052 a86.0,86.0 0 0,1 -10.086455211305974,41.156179273409016" fill="none" id="id4" stroke="none" /><text fill="#e1ed5e" style="font-size:6.75px; font-family:Arial;" text-anchor="middle"><textPath startOffset="21.40746469413373" xlink:href="#id4">April</textPath></text><line stroke="#e1ed5e" stroke-width="0.3" x1="174.33088141563837" x2="178.70328620479359" y1="141.23008692659167" y2="143.65538615756765" /><path d="M 175.20536237346943 141.71514677278685 a86.0,86.0 0 0,1 -30.301960400862466,31.631185727798858" fill="none" id="id5" stroke="none" /><text fill="#e1ed5e" style="font-size:6.75px; font-family:Arial;" text-anchor="middle"><textPath startOffset="22.145653131862474" xlink:href="#id5">May</textPath></text><line stroke="#e1ed5e" stroke-width="0.3" x1="143.1302829299769" x2="145.66735839644613" y1="173.24464959558577" y2="177.55315839532614" /><path d="M 143.63769802327073 174.10635135553383 a86.0,86.0 0 0,1 -40.68552437913181,11.842963189579606" fill="none" id="id6" stroke="none" /><text fill="#e1ed5e" style="font-size:6.75px; font-family:Arial;" text-anchor="middle"><textPath startOffset="21.407464694133747" xlink:href="#id6">June</textPath></text><path d="M 106.72888874123015 119.89276391827305 l 6.082850818279756 17.98286759248626 a39.983798379837985,39.983798379837985 0 0,0 -0.6520734194081844,0.21434948478331414 l -5.773254661223837 -18.084637998671596" fill="#ff970e" stroke="none" /><path d="M 105.3480935250658 120.30758222061773 l 4.834625199826964 18.35785935515188 a39.983798379837985,39.983798379837985 0 0,0 -0.665244167174206,0.16910246587860084 l -4.518775739427361 -18.43814705286575" fill="#ff970e" stroke="none" /><path d="M 104.9986988182912 120.39639698878246 l 5.339144252360239 21.78553053707337 a43.43024302430243,43.43024302430243 0 0,0 -0.7256321824995539,0.1712472192758986 l -4.964379916120806 -21.873973899995494" fill="#ffcb12" stroke="none" /><path d="M 104.29559338865022 120.5559693870025 l 5.150072361550034 24.644960597198327 a46.17731773177317,46.17731773177317 0 0,0 -0.7773259098540665,0.1554869522525917 l -4.726249966165009 -24.729736946113782" fill="#fff316" stroke="none" /><path d="M 103.58742460773223 120.69131181640829 l 4.826286210942493 27.836736329065335 a49.25202520252025,49.25202520252025 0 0,0 -0.8342882564158818,0.1372818151093136 l -4.347720451473539 -27.91548414267032" fill="#e0ff1b" stroke="none" /><path d="M 103.2317021107853 120.74984581791261 l 4.362264565383465 28.008867787215383 a49.34653465346535,49.34653465346535 0 0,0 -0.83812714457864,0.12317582775972186 l -3.880812315197139 -28.079624688273988" fill="#dfff1b" stroke="none" /><path d="M 102.875027216393 120.80226474461374 l 3.75487352924053 27.168394369428018 a48.426642664266424,48.426642664266424 0 0,0 -0.8244570839926494,0.10674247572870278 l -3.287938623357105 -27.228848441357115" fill="#ebff1a" stroke="none" /><path d="M 102.51750503828377 120.84855314841334 l 1.153384396477441 9.551677365024656 a30.621062106210623,30.621062106210623 0 0,0 -0.5224012955955942,0.058536154796316124 l -0.9892471992810475 -9.570069280327942" fill="#ff0000" stroke="none" /><path d="M 101.44090949804482 120.95050786540614 l 2.5938964861292826 37.71468562629367 a58.80378037803781,58.80378037803781 0 0,0 -1.0076605945237633,0.06061835912455805 l -1.946091539473054 -37.75365596324292" fill="#65ff29" stroke="none" /><path d="M 101.08105385017728 120.97215588758144 l 1.621418600970966 31.455087693375223 a52.496849684968495,52.496849684968495 0 0,0 -0.9003815669588623,0.038666258588651886 l -1.081211273411274 -31.478286520389705" fill="#b5ff20" stroke="none" /><line stroke="#e1ed5e" stroke-width="0.3" x1="101.45913802915013" x2="101.54496967792366" y1="184.9874750549273" y2="189.98673829345242" /><path d="M 101.47630435890484 185.9873277026323 a86.0,86.0 0 0,1 -42.54439059252881,-10.42667462771756" fill="none" id="id7" stroke="none" /><text fill="#e1ed5e" style="font-size:6.75px; font-family:Arial;" text-anchor="middle"><textPath startOffset="22.145653131862474" xlink:href="#id7">July</textPath></text><path d="M 100.36049292484886 120.99690560180557 l 0.5407934666199442 31.498508253533704 a52.503150315031505,52.503150315031505 0 0,0 -0.9012863914687926,0.007736459692237058 l -3.8580232196361266e-15 -31.503150315031505" fill="#b4ff20" stroke="none" /><path d="M 99.63950707515114 120.99690560180557 l -0.5406853079266124 31.492208551882992 a52.496849684968495,52.496849684968495 0 0,0 -0.9009126514139099,-0.02320431414323576 l 1.0812112734112662 -31.47828652038971" fill="#b5ff20" stroke="none" /><path d="M 99.27912038922189 120.98762331915562 l -1.080778702387697 31.46569268701488 a52.484248424842484,52.484248424842484 0 0,0 -0.9001654408025842,-0.03865697720157451 l 1.62076990379112 -31.442503141387476" fill="#b5ff20" stroke="none" /><path d="M 98.19965949673042 120.92268563240118 l -2.7007808329876757 31.387167165318314 a52.503150315031505,52.503150315031505 0 0,0 -0.897304931986999,-0.08497570998358962 l 3.23918532835969 -31.33617969982954" fill="#b4ff20" stroke="none" /><path d="M 97.12497278360702 120.80226474461374 l -4.309521744104203 31.181552554482522 a52.47794779477948,52.47794779477948 0 0,0 -0.8913126898870665,-0.13099227137522004 l 4.844159539598954 -31.10297920980842" fill="#b5ff20" stroke="none" /><path d="M 96.76829788921471 120.74984581791261 l -4.846098754786944 31.115430362414422 a52.490549054905486,52.490549054905486 0 0,0 -0.8891461512346017,-0.14630866082585864 l 5.3795224090746085 -31.027655703092893" fill="#b5ff20" stroke="none" /><path d="M 95.00130118170881 120.39639698878247 l -7.494298828383158 30.579296655549346 a52.484248424842484,52.484248424842484 0 0,0 -0.8732246946992486,-0.22197030267394513 l 8.018128816307785 -30.446141121040135" fill="#b5ff20" stroke="none" /><path d="M 94.30408787586889 120.21278271476187 l -8.546431602994211 30.328270734030642 a52.509450945094514,52.509450945094514 0 0,0 -0.8655057476182686,-0.25193610911576125 l 9.065797362994086 -30.177090930612362" fill="#b4ff20" stroke="none" /><path d="M 93.61358852112213 120.00534299687104 l -9.59207196617541 30.047028815582483 a52.540954095409546,52.540954095409546 0 0,0 -0.8568610533319733,-0.281667247653328 l 10.106455757155127 -29.877940646527133" fill="#b4ff20" stroke="none" /><path d="M 93.27111125876986 119.89276391827306 l -10.114531231192005 29.901814350599466 a52.56615661566157,52.56615661566157 0 0,0 -0.8523082339719121,-0.29647704682875786 l 10.62634523720894 -29.723778871202118" fill="#b4ff20" stroke="none" /><path d="M 91.26138138417905 119.09545874513695 l -13.098751456538102 28.623135880799353 a52.47794779477948,52.47794779477948 0 0,0 -0.8159353441837266,-0.38189894006873215 l 13.588175514593317 -28.394060709160097" fill="#b5ff20" stroke="none" /><path d="M 90.93487009805054 118.94263497670748 l -13.588175514593317 28.394060709160097 a52.47794779477948,52.47794779477948 0 0,0 -0.8092593110999772,-0.3958492815602296 l 14.073595074955364 -28.156617677502645" fill="#b5ff20" stroke="none" /><path d="M 89.97174638481275 118.45085714620012 l -30.084760845561753 55.35257143860034 a84.0,84.0 0 0,0 -1.2610232473755896,-0.6994683382674065 l 31.030528281093442 -54.82797018489979" fill="#4dd2ff" stroke="none" /><line stroke="#e1ed5e" stroke-width="0.3" x1="58.13341422392154" x2="55.67067388415222" y1="173.97424548756322" y2="178.32567169271397" /><path d="M 57.64086615596768 174.84453072859336 a86.0,86.0 0 0,1 -31.369924170532247,-30.572349798747897" fill="none" id="id8" stroke="none" /><text fill="#e1ed5e" style="font-size:6.75px; font-family:Arial;" text-anchor="middle"><textPath startOffset="22.145653131862474" xlink:href="#id8">August</textPath></text><path d="M 88.1277618465304 117.32195027204791 l -17.8137002716776 25.99072106526002 a52.509450945094514,52.509450945094514 0 0,0 -0.7391453075781096,-0.5159808296069771 l 18.257240670429475 -25.681095419847914" fill="#b4ff20" stroke="none" /><path d="M 87.54013794807813 116.9041958592261 l -18.676708914311938 25.338542608068906 a52.47794779477948,52.47794779477948 0 0,0 -0.7205647330819764,-0.5407252090963157 l 19.10892663630468 -25.014198371708574" fill="#b5ff20" stroke="none" /><path d="M 86.68645165197938 116.24036423190432 l -19.28527195446851 23.52489604309454 a51.41944194419442,51.41944194419442 0 0,0 -0.6778200596774059,-0.565461601288697 l 19.686266348307807 -23.190372257893973" fill="#c3ff1e" stroke="none" /><path d="M 86.13680546590413 115.77377054828092 l -20.82182773407858 23.691417751183412 a52.540954095409546,52.540954095409546 0 0,0 -0.6723615185478279,-0.6012298158723298 l 21.225454279449774 -23.330492405427698" fill="#b4ff20" stroke="none" /><path d="M 85.86807049272751 115.53346607816431 l -21.225454279449774 23.330492405427698 a52.540954095409546,52.540954095409546 0 0,0 -0.661941535257374,-0.6126832028209139 l 21.62282558602112 -22.962691456474406" fill="#b4ff20" stroke="none" /><path d="M 85.34317274990678 115.03919595460226 l -21.974247155330264 22.547513406884942 a52.484248424842484,52.484248424842484 0 0,0 -0.6398281744126649,-0.6343595903976198 l 22.35806724987289 -22.166973806258664" fill="#b5ff20" stroke="none" /><path d="M 82.78059297857968 112.02048342749411 l -25.84719271772153 18.043347911117017 a52.52205220522052,52.52205220522052 0 0,0 -0.5097396801402492,-0.7437254270795243 l 26.153122134677105 -17.596987748967443" fill="#b4ff20" stroke="none" /><path d="M 82.37810715431573 111.42229804090323 l -26.435482816808086 17.135160577412574 a52.503150315031505,52.503150315031505 0 0,0 -0.4837347961840562,-0.7605114458153696 l 26.725735304618034 -16.678835456918534" fill="#b4ff20" stroke="none" /><path d="M 82.18462484594161 111.11811171558189 l -26.73642559873988 16.6855069911013 a52.515751575157516,52.515751575157516 0 0,0 -0.4707212770069613,-0.7688878299135364 l 27.018914840202246 -16.224082045063206" fill="#b4ff20" stroke="none" /><path d="M 81.99639281039703 110.81064883170644 l -27.00811159556402 16.217595007060382 a52.503150315031505,52.503150315031505 0 0,0 -0.4573431663632242,-0.7766686812510575 l 27.282528472057017 -15.751575157515767" fill="#b4ff20" stroke="none" /><line stroke="#e1ed5e" stroke-width="0.3" x1="26.387840678322732" x2="22.057713659400548" y1="142.50000000000003" y2="145.00000000000006" /><path d="M 25.521815274538298 143.00000000000003 a86.0,86.0 0 0,1 -11.493303480769221,-40.785679425670985" fill="none" id="id9" stroke="none" /><text fill="#e1ed5e" style="font-size:6.75px; font-family:Arial;" text-anchor="middle"><textPath startOffset="21.40746469413373" xlink:href="#id9">September</textPath></text><path d="M 81.81346652052679 110.50000000000001 l -27.293441483445836 15.757875787578772 a52.515751575157516,52.515751575157516 0 0,0 -0.4440497757416177,-0.7845934057077173 l 27.559924624208833 -15.287025611771933" fill="#b4ff20" stroke="none" /><path d="M 81.4637452351635 109.86951160357371 l -27.801601430968393 14.80278683056256 a52.496849684968495,52.496849684968495 0 0,0 -0.4167048212723441,-0.7990864393799226 l 28.051614321215684 -14.323354148078135" fill="#b5ff20" stroke="none" /><path d="M 81.29705330413844 109.54985784667822 l -28.057225766368962 14.326219391956528 a52.503150315031505,52.503150315031505 0 0,0 -0.40297439640161886,-0.8062187346496994 l 28.299020075982316 -13.842468801143076" fill="#b4ff20" stroke="none" /><path d="M 80.9802524753101 108.90220220490708 l -28.58383298865038 13.37867712102597 a52.55985598559856,52.55985598559856 0 0,0 -0.3754664248962263,-0.8204618992994496 l 28.80928387840166 -12.88602623951183" fill="#b4ff20" stroke="none" /><path d="M 80.5471966667186 107.91128576633889 l -29.217141760098006 11.88235719960772 a52.540954095409546,52.540954095409546 0 0,0 -0.332612574094656,-0.8384009653333571 l 29.416813009158787 -11.379055217060797" fill="#b4ff20" stroke="none" /><path d="M 80.41425534168474 107.57618678355246 l -29.399184076072984 11.372235967030594 a52.52205220522052,52.52205220522052 0 0,0 -0.3180568316000185,-0.8436835332438067 l 29.59007159148744 -10.865884153592642" fill="#b4ff20" stroke="none" /><path d="M 80.16572619554312 106.89939002012753 l -29.75438614529986 10.350120042195515 a52.503150315031505,52.503150315031505 0 0,0 -0.2888037749887378,-0.853797043686412 l 29.927675341860965 -9.837821324034941" fill="#b4ff20" stroke="none" /><path d="M 79.94057633289273 106.21446072829308 l -30.09214471513241 9.322623354775102 a52.503150315031505,52.503150315031505 0 0,0 -0.25932476009893607,-0.8632077855621066 l 30.247745795234977 -8.804677965622272" fill="#b4ff20" stroke="none" /><path d="M 79.48165901384964 104.47187691870673 l -49.378221737147335 10.761753604844488 a71.53735373537353,71.53735373537353 0 0,0 -0.2512061060006418,-1.202112154847124 l 49.555685553972346 -9.912524998711955" fill="#3bff9c" stroke="none" /><line stroke="#e1ed5e" stroke-width="0.3" x1="15.003131293944662" x2="10.003315487706104" y1="100.72959589197737" y2="100.7725132973878" /><path d="M 14.003168132696942 100.73817937305945 a86.0,86.0 0 0,1 10.791469493833604,-42.45332614584628" fill="none" id="id10" stroke="none" /><text fill="#e1ed5e" style="font-size:6.75px; font-family:Arial;" text-anchor="middle"><textPath startOffset="22.145653131862435" xlink:href="#id10">October</textPath></text><line stroke="#e1ed5e" stroke-width="0.3" x1="26.387840678322718" x2="22.05771365940052" y1="57.49999999999999" y2="54.99999999999999" /><path d="M 25.521815274538284 56.99999999999999 a86.0,86.0 0 0,1 29.574782752854787,-30.34633250058573" fill="none" id="id11" stroke="none" /><text fill="#e1ed5e" style="font-size:6.75px; font-family:Arial;" text-anchor="middle"><textPath startOffset="21.40746469413373" xlink:href="#id11">November</textPath></text><line stroke="#e1ed5e" stroke-width="0.3" x1="56.869717070023135" x2="54.33264160355391" y1="26.7553504044142" y2="22.446841604673864" /><path d="M 56.362301976729285 25.89364864446614 a86.0,86.0 0 0,1 42.16139366436587,-11.88097634709845" fill="none" id="id12" stroke="none" /><text fill="#e1ed5e" style="font-size:6.75px; font-family:Arial;" text-anchor="middle"><textPath startOffset="22.145653131862474" xlink:href="#id12">December</textPath></text></svg>