<?xml version="1.0" encoding="utf-8" ?>
<svg baseProfile="full" height="200mm" version="1.1" viewBox="0,0,200,200" width="200mm" xmlns="http://www.w3.org/2000/svg" xmlns:ev="http://www.w3.org/2001/xml-events" xmlns:xlink="http://www.w3.org/1999/xlink"><defs /><rect fill="#1a1a1a" height="200" width="200" x="0" y="0" /><text alignment-baseline="middle" fill="#e1ed5e" style="dominant-baseline: central; font-size:9.0px; font-family:Arial;" text-anchor="middle" x="100.0" y="100.0">2025</text><line stroke="#e1ed5e" stroke-width="0.3" x1="100.0" x2="100.0" y1="15.0" y2="10.0" /><path d="M 100.0 14.0 a86.0,86.0 0 0,1 42.46469731375804,11.215312516191453" fill="none" id="id13" stroke="none" /><text fill="#e1ed5e" style="font-size:6.75px; font-family:Arial;" text-anchor="middle"><textPath startOffset="22.20632615414155" xlink:href="#id13">January</textPath></text><path d="M 100.0 79.0 l 0.0 -37.72222222222222 a58.72222222222222,58.72222222222222 0 0,0 1.0108065253731813,0.008700330886896096 l -0.6493260461006528 37.716633267943884" fill="#7fff26" stroke="none" /><path d="M 100.36148047927253 79.00311137660856 l 0.3237992704116823 -18.808144857094064 a39.810931899641574,39.810931899641574 0 0,0 0.6850766865048309,0.017693509639319996 l -0.6475025921113811 18.79978455531238" fill="#ff5d08" stroke="none" /><path d="M 101.08401301168833 79.027996857942 l 1.6409133641685936 -31.74615051491933 a52.78853046594982,52.78853046594982 0 0,0 0.9070526275286219,0.0547158915458067 l -2.187128040536827 31.71320135399322" fill="#d2ff1c" stroke="none" /><line stroke="#e1ed5e" stroke-width="0.3" x1="143.23703022742887" x2="145.7803849466894" y1="26.81831364943548" y2="22.513508569990506" /><path d="M 143.74570117128098 25.957352633546492 a86.0,86.0 0 0,1 28.547481713284135,27.462654790039103" fill="none" id="id14" stroke="none" /><text fill="#e1ed5e" style="font-size:6.75px; font-family:Arial;" text-anchor="middle"><textPath startOffset="19.985693538727396" xlink:href="#id14">February</textPath></text><path d="M 113.34407831869373 83.78471172551755 l 11.969016484778153 -14.544358031144204 a39.836021505376344,39.836021505376344 0 0,0 0.5257263389404557,0.4402806897825129 l -12.217600360677727 14.336176183967872" fill="#ff5d08" stroke="none" /><path d="M 115.4437574822437 85.77008943001954 l 14.650350586501185 -13.498863790399628 a40.921146953405014,40.921146953405014 0 0,0 0.47284650197759354,0.5221289175189552 l -14.880540729094813 13.244682085611124" fill="#ff700a" stroke="none" /><path d="M 116.82858285166822 87.43820079747576 l 10.912441269704804 -8.145658921350101 a34.617383512544805,34.617383512544805 0 0,0 0.35233471969453284,0.48058416170162077 l -11.051038601912964 7.956612315976987" fill="#ff0000" stroke="none" /><line stroke="#e1ed5e" stroke-width="0.3" x1="172.23445277983987" x2="176.4835382374775" y1="55.19839476539836" y2="52.563006222186495" /><path d="M 173.08426987136738 54.67131705675599 a86.0,86.0 0 0,1 12.851231095245387,41.99856678651699" fill="none" id="id15" stroke="none" /><text fill="#e1ed5e" style="font-size:6.75px; font-family:Arial;" text-anchor="middle"><textPath startOffset="22.20632615414155" xlink:href="#id15">March</textPath></text><path d="M 120.67395015179393 96.31383870115 l 18.53739496884271 -3.305213924476606 a39.82974910394265,39.82974910394265 0 0,0 0.1145354478335077,0.6759946965933182 l -18.591542278196442 2.98563343956745" fill="#ff5d08" stroke="none" /><path d="M 120.73433829027371 96.67025291283417 l 18.579156174080385 -2.983644343338557 a39.817204301075265,39.817204301075265 0 0,0 0.1028499368122235,0.6776525790128621 l -18.627762004331906 2.663392651933613" fill="#ff5d08" stroke="none" /><path d="M 120.98425023603335 99.18683210126433 l 20.219591177253168 -0.7835363325332337 a41.23476702508961,41.23476702508961 0 0,0 0.021379844877117492,0.7094929661971494 l -20.230082716585933 0.43537321891108516" fill="#ff750a" stroke="none" /><line stroke="#e1ed5e" stroke-width="0.3" x1="184.98032266829074" x2="189.97916517819016" y1="98.17113171792111" y2="98.06355123074" /><path d="M 185.9800911702706 98.14961562048488 a86.0,86.0 0 0,1 -9.607161424134198,41.387399972396054" fill="none" id="id16" stroke="none" /><text fill="#e1ed5e" style="font-size:6.75px; font-family:Arial;" text-anchor="middle"><textPath startOffset="21.466115282336823" xlink:href="#id16">April</textPath></text><path d="M 120.99513854157772 99.54816195383933 l 19.145208472950046 -0.41202555404077584 a40.14964157706093,40.14964157706093 0 0,0 0.008922766260305482,0.6910780800940794 l -19.149464246328066 0.0824112158862336" fill="#ff6209" stroke="none" /><path d="M 120.99980553446 99.90962569577887 l 25.076828711699832 -0.10792009207768158 a46.07706093189964,46.07706093189964 0 0,0 -0.0034134385039757656,0.7931628951958578 l -25.074970975906353 -0.3237522813218609" fill="#ffc512" stroke="none" /><path d="M 120.8583938346157 102.4346265915055 l 31.15052842684543 3.6359417435864825 a52.36200716845878,52.36200716845878 0 0,0 -0.11220053787554118,0.8943486819620153 l -31.08332637972304 -4.171608179835893" fill="#d9ff1c" stroke="none" /><path d="M 120.70491114924044 103.5080841355445 l 30.92131294689432 5.239074276500149 a52.36200716845878,52.36200716845878 0 0,0 -0.15821693529045777,0.8873645964393947 l -30.826549569264674 -5.770557623672762" fill="#d9ff1c" stroke="none" /><path d="M 120.5718875245553 104.21870165774334 l 30.71650708938229 6.299070963876624 a52.35573476702509,52.35573476702509 0 0,0 -0.18864509521119283,0.8812870816407519 l -30.603527955446655 -6.826871864933545" fill="#d9ff1c" stroke="none" /><path d="M 120.41448212921028 104.9243191809786 l 42.71309656962905 10.303123017549316 a64.93817204301075,64.93817204301075 0 0,0 -0.2714684178922446,1.084381385519343 l -42.529416837441744 -11.036832242466055" fill="#30ff2f" stroke="none" /><path d="M 120.02730092923936 106.31721596034902 l 60.08190278771807 18.951647881047055 a84.0,84.0 0 0,0 -0.4468309959350121,1.375204400088819 l -59.746779540766816 -19.98305118111367" fill="#4dd2ff" stroke="none" /><line stroke="#e1ed5e" stroke-width="0.3" x1="174.80103733775053" x2="179.2010983576182" y1="140.37084112569926" y2="142.7455964860345" /><path d="M 175.68104954172406 140.8457921977663 a86.0,86.0 0 0,1 -30.038265399797805,32.042727171017184" fill="none" id="id17" stroke="none" /><text fill="#e1ed5e" style="font-size:6.75px; font-family:Arial;" text-anchor="middle"><textPath startOffset="22.206326154141568" xlink:href="#id17">May</textPath></text><line stroke="#e1ed5e" stroke-width="0.3" x1="143.8653032363475" x2="146.44561519142675" y1="172.8068346515853" y2="177.08958963109032" /><path d="M 144.38136562736335 173.6633856474863 a86.0,86.0 0 0,1 -40.68145358897372,12.25698825130547" fill="none" id="id18" stroke="none" /><text fill="#e1ed5e" style="font-size:6.75px; font-family:Arial;" text-anchor="middle"><textPath startOffset="21.466115282336833" xlink:href="#id18">June</textPath></text><line stroke="#e1ed5e" stroke-width="0.3" x1="102.19456741930631" x2="102.32365962044197" y1="184.97166512339345" y2="189.96999836594603" /><path d="M 102.22038585953345 185.97133177190398 a86.0,86.0 0 0,1 -42.740103519485714,-10.115201625700543" fill="none" id="id19" stroke="none" /><text fill="#e1ed5e" style="font-size:6.75px; font-family:Arial;" text-anchor="middle"><textPath startOffset="22.20632615414155" xlink:href="#id19">July</textPath></text><line stroke="#e1ed5e" stroke-width="0.3" x1="58.666819895761336" x2="56.23545636021788" y1="174.27360380694188" y2="178.64263932499728" /><path d="M 58.180547188652646 175.14741091055294 a86.0,86.0 0 0,1 -31.652253787137756,-30.449443065178592" fill="none" id="id20" stroke="none" /><text fill="#e1ed5e" style="font-size:6.75px; font-family:Arial;" text-anchor="middle"><textPath startOffset="22.20632615414155" xlink:href="#id20">August</textPath></text><line stroke="#e1ed5e" stroke-width="0.3" x1="26.63291911575756" x2="22.317208475507996" y1="142.92168965132927" y2="145.44649492493687" /><path d="M 25.769776987707644 143.4266507060508 a86.0,86.0 0 0,1 -11.730757126820373,-40.83630448921669" fill="none" id="id21" stroke="none" /><text fill="#e1ed5e" style="font-size:6.75px; font-family:Arial;" text-anchor="middle"><textPath startOffset="21.46611528233685" xlink:href="#id21">September</textPath></text><line stroke="#e1ed5e" stroke-width="0.3" x1="15.007084014347285" x2="10.007500721073583" y1="101.09737516637583" y2="101.16192664675087" /><path d="M 14.007167355692545 101.11028546245083 a86.0,86.0 0 0,1 10.666146001902534,-42.60595125391555" fill="none" id="id22" stroke="none" /><text fill="#e1ed5e" style="font-size:6.75px; font-family:Arial;" text-anchor="middle"><textPath startOffset="22.20632615414155" xlink:href="#id22">October</textPath></text><line stroke="#e1ed5e" stroke-width="0.3" x1="26.266209847984243" x2="21.928928074336255" y1="57.711370442889674" y2="55.22380399835377" /><path d="M 25.398753493254645 57.213857153982495 a86.0,86.0 0 0,1 29.58750427330803,-30.492523968695096" fill="none" id="id23" stroke="none" /><text fill="#e1ed5e" style="font-size:6.75px; font-family:Arial;" text-anchor="middle"><textPath startOffset="21.46611528233685" xlink:href="#id23">November</textPath></text><line stroke="#e1ed5e" stroke-width="0.3" x1="56.762969772571076" x2="54.21961505331055" y1="26.818313649435495" y2="22.513508569990535" /><path d="M 56.25429882871897 25.957352633546506 a86.0,86.0 0 0,1 42.265352541879196,-11.944610805530505" fill="none" id="id24" stroke="none" /><text fill="#e1ed5e" style="font-size:6.75px; font-family:Arial;" text-anchor="middle"><textPath startOffset="22.20632615414155" xlink:href="#id24">December</textPath></text></svg>