<?xml version="1.0" encoding="utf-8" ?>
<svg baseProfile="full" height="200mm" version="1.1" viewBox="0,0,200,200" width="200mm" xmlns="http://www.w3.org/2000/svg" xmlns:ev="http://www.w3.org/2001/xml-events" xmlns:xlink="http://www.w3.org/1999/xlink"><defs /><rect fill="#1a1a1a" height="200" width="200" x="0" y="0" /><text alignment-baseline="middle" fill="#e1ed5e" style="dominant-baseline: central; font-size:9.0px; font-family:Arial;" text-anchor="middle" x="100.0" y="100.0">2024</text><line stroke="#e1ed5e" stroke-width="0.3" x1="100.0" x2="100.0" y1="15.0" y2="10.0" /><path d="M 100.0 14.0 a86.0,86.0 0 0,1 42.35913384403234,11.155469271406648" fill="none" id="id1" stroke="none" /><text fill="#e1ed5e" style="font-size:6.75px; font-family:Arial;" text-anchor="middle"><textPath startOffset="22.145653131862478" xlink:href="#id1">January</textPath></text><line stroke="#e1ed5e" stroke-width="0.3" x1="143.13028292997686" x2="145.6673583964461" y1="26.7553504044142" y2="22.446841604673864" /><path d="M 143.63769802327073 25.89364864446614 a86.0,86.0 0 0,1 29.32050498858742,28.57503671076993" fill="none" id="id2" stroke="none" /><text fill="#e1ed5e" style="font-size:6.75px; font-family:Arial;" text-anchor="middle"><textPath startOffset="20.669276256404974" xlink:href="#id2">February</textPath></text><line stroke="#e1ed5e" stroke-width="0.3" x1="172.87174338648825" x2="177.1583165268699" y1="56.24261187166439" y2="53.66864786411523" /><path d="M 173.72905801456457 55.72781907015455 a86.0,86.0 0 0,1 12.242430191666344,42.057860355516425" fill="none" id="id3" stroke="none" /><text fill="#e1ed5e" style="font-size:6.75px; font-family:Arial;" text-anchor="middle"><textPath startOffset="22.145653131862474" xlink:href="#id3">March</textPath></text><line stroke="#e1ed5e" stroke-width="0.3" x1="184.99686870605535" x2="189.99668451229388" y1="99.2704041080226" y2="99.22748670261217" /><path d="M 185.99683186730306 99.26182062694052 a86.0,86.0 0 0,1 -10.086455211305974,41.156179273409016" fill="none" id="id4" stroke="none" /><text fill="#e1ed5e" style="font-size:6.75px; font-family:Arial;" text-anchor="middle"><textPath startOffset="21.40746469413373" xlink:href="#id4">April</textPath></text><line stroke="#e1ed5e" stroke-width="0.3" x1="174.33088141563837" x2="178.70328620479359" y1="141.23008692659167" y2="143.65538615756765" /><path d="M 175.20536237346943 141.71514677278685 a86.0,86.0 0 0,1 -30.301960400862466,31.631185727798858" fill="none" id="id5" stroke="none" /><text fill="#e1ed5e" style="font-size:6.75px; font-family:Arial;" text-anchor="middle"><textPath startOffset="22.145653131862474" xlink:href="#id5">May</textPath></text><line stroke="#e1ed5e" stroke-width="0.3" x1="143.1302829299769" x2="145.66735839644613" y1="173.24464959558577" y2="177.55315839532614" /><path d="M 143.63769802327073 174.10635135553383 a86.0,86.0 0 0,1 -40.68552437913181,11.842963189579606" fill="none" id="id6" stroke="none" /><text fill="#e1ed5e" style="font-size:6.75px; font-family:Arial;" text-anchor="middle"><textPath startOffset="21.407464694133747" xlink:href="#id6">June</textPath></text><path d="M 107.06938296918513 119.77432235084164 l 6.390654331279561 17.87579755268103 a39.983798379837985,39.983798379837985 0 0,0 -0.648297740954783,0.22551160723664115 l -6.082850818279756 -17.98286759248626" fill="#ff970e" stroke="none" /><path d="M 105.69591212413111 120.21278271476187 l 5.149049873989509 18.272161512024457 a39.983798379837985,39.983798379837985 0 0,0 -0.6622432732278503,0.18049734898328068 l -4.834625199826964 -18.35785935515188" fill="#ff970e" stroke="none" /><path d="M 105.3480935250658 120.30758222061773 l 5.712335118282107 21.69066687830756 a43.43024302430243,43.43024302430243 0 0,0 -0.7225855726964704,0.1836784269305382 l -5.339144252360239 -21.78553053707337" fill="#ffcb12" stroke="none" /><path d="M 104.64783097203109 120.47920084513623 l 5.572377006971556 24.552921265275838 a46.17731773177317,46.17731773177317 0 0,0 -0.7745422288023861,0.1688078737887714 l -5.150072361550034 -24.644960597198327" fill="#fff316" stroke="none" /><path d="M 103.94208987418118 120.62667999033965 l 5.303429641712689 27.749784901495048 a49.25202520252025,49.25202520252025 0 0,0 -0.8318086972191377,0.15158325363892305 l -4.826286210942493 -27.836736329065335" fill="#e0ff1b" stroke="none" /><path d="M 103.58742460773223 120.69131181640829 l 4.842431236179813 27.929856544260694 a49.34653465346535,49.34653465346535 0 0,0 -0.8358891677432757,0.13754524445901803 l -4.362264565383465 -28.008867787215383" fill="#dfff1b" stroke="none" /><path d="M 103.2317021107853 120.74984581791261 l 4.220701856660195 27.099933646976783 a48.426642664266424,48.426642664266424 0 0,0 -0.82250322181198,0.12087964915235215 l -3.75487352924053 -27.168394369428018" fill="#ebff1a" stroke="none" /><path d="M 102.875027216393 120.80226474461374 l 1.317181685998229 9.53047052656021 a30.621062106210623,30.621062106210623 0 0,0 -0.5213194676300126,0.06749524226405094 l -1.153384396477441 -9.551677365024656" fill="#ff0000" stroke="none" /><path d="M 101.80034050326958 120.92268563240118 l 3.2409369995852035 37.66460059838198 a58.80378037803781,58.80378037803781 0 0,0 -1.0064715186806854,0.07790726091664095 l -2.5938964861292826 -37.71468562629367" fill="#65ff29" stroke="none" /><path d="M 101.44090949804482 120.95050786540614 l 2.1611480890267134 31.42261890764034 a52.496849684968495,52.496849684968495 0 0,0 -0.8995851359232825,0.054116807910191536 l -1.621418600970966 -31.455087693375223" fill="#b5ff20" stroke="none" /><path d="M 100.72087961077811 120.9876233191556 l 1.0814275589230589 31.484583437077124 a52.503150315031505,52.503150315031505 0 0,0 -0.9010207782323707,0.023207099106532902 l -0.5407934666199442 -31.498508253533704" fill="#b4ff20" stroke="none" /><line stroke="#e1ed5e" stroke-width="0.3" x1="101.45913802915013" x2="101.54496967792366" y1="184.9874750549273" y2="189.98673829345242" /><path d="M 101.47630435890484 185.9873277026323 a86.0,86.0 0 0,1 -42.54439059252881,-10.42667462771756" fill="none" id="id7" stroke="none" /><text fill="#e1ed5e" style="font-size:6.75px; font-family:Arial;" text-anchor="middle"><textPath startOffset="22.145653131862474" xlink:href="#id7">July</textPath></text><path d="M 100.0 121.0 l 3.857251614992199e-15 31.496849684968495 a52.496849684968495,52.496849684968495 0 0,0 -0.9011782327754684,-0.007735531279937496 l 0.5406853079266124 -31.492208551882992" fill="#b5ff20" stroke="none" /><path d="M 99.63950707515114 120.99690560180557 l -0.5404689905399644 31.47960914858158 a52.484248424842484,52.484248424842484 0 0,0 -0.9006963977769886,-0.02319874421665313 l 1.080778702387697 -31.46569268701488" fill="#b5ff20" stroke="none" /><path d="M 98.55909050195518 120.95050786540614 l -2.161580405107742 31.428904688578058 a52.503150315031505,52.503150315031505 0 0,0 -0.8986314331046977,-0.06955975626469185 l 2.7007808329876757 -31.387167165318314" fill="#b4ff20" stroke="none" /><path d="M 97.48249496171623 120.84855314841334 l -3.773613912770992 31.25093655249717 a52.47794779477948,52.47794779477948 0 0,0 -0.8934300094424172,-0.11567240181424938 l 4.309521744104203 -31.181552554482522" fill="#b5ff20" stroke="none" /><path d="M 97.12497278360702 120.80226474461374 l -4.311246932952923 31.194035161589994 a52.490549054905486,52.490549054905486 0 0,0 -0.8915267162263356,-0.13102372587669084 l 4.846098754786944 -31.115430362414422" fill="#b5ff20" stroke="none" /><path d="M 95.35216902796893 120.47920084513623 l -6.968260236195405 30.70344033097683 a52.484248424842484,52.484248424842484 0 0,0 -0.876906438447865,-0.20694753178125566 l 7.494298828383158 -30.579296655549346" fill="#b5ff20" stroke="none" /><path d="M 94.6519064749342 120.30758222061772 l -8.024547170373271 30.470512656858464 a52.509450945094514,52.509450945094514 0 0,0 -0.869703031686244,-0.23704142868367858 l 8.546431602994211 -30.328270734030642" fill="#b4ff20" stroke="none" /><path d="M 93.95794788825049 120.11202640906438 l -9.074861347560168 30.207261987331634 a52.540954095409546,52.540954095409546 0 0,0 -0.8615699857436085,-0.2669165839425004 l 9.59207196617541 -30.047028815582483" fill="#b4ff20" stroke="none" /><path d="M 93.61358852112213 120.00534299687104 l -9.599736426396085 30.071037628059976 a52.56615661566157,52.56615661566157 0 0,0 -0.8572720671481775,-0.28180235605848614 l 10.114531231192005 -29.901814350599466" fill="#b4ff20" stroke="none" /><path d="M 91.59046798132341 119.24265499422711 l -12.605467136306103 28.843775682915876 a52.47794779477948,52.47794779477948 0 0,0 -0.8223709173763623,-0.3678360512066661 l 13.098751456538102 -28.623135880799353" fill="#b5ff20" stroke="none" /><path d="M 91.26138138417905 119.09545874513695 l -13.098751456538102 28.623135880799353 a52.47794779477948,52.47794779477948 0 0,0 -0.8159353441837266,-0.38189894006873215 l 13.588175514593317 -28.394060709160097" fill="#b5ff20" stroke="none" /><path d="M 90.28995756902619 118.62028667847754 l -29.130127292921436 55.86086003543262 a84.0,84.0 0 0,0 -1.2728447368537525,-0.6777181291097074 l 30.084760845561753 -55.35257143860034" fill="#4dd2ff" stroke="none" /><line stroke="#e1ed5e" stroke-width="0.3" x1="58.13341422392154" x2="55.67067388415222" y1="173.97424548756322" y2="178.32567169271397" /><path d="M 57.64086615596768 174.84453072859336 a86.0,86.0 0 0,1 -31.369924170532247,-30.572349798747897" fill="none" id="id8" stroke="none" /><text fill="#e1ed5e" style="font-size:6.75px; font-family:Arial;" text-anchor="middle"><textPath startOffset="22.145653131862474" xlink:href="#id8">August</textPath></text><path d="M 88.4268655584334 117.5232005979908 l -17.36491009369174 26.29268712587818 a52.509450945094514,52.509450945094514 0 0,0 -0.7478938898888554,-0.5032163865610418 l 17.8137002716776 -25.99072106526002" fill="#b4ff20" stroke="none" /><path d="M 87.83215693770417 117.11559508785305 l -18.238987080477035 25.65541945962011 a52.47794779477948,52.47794779477948 0 0,0 -0.7297408234609476,-0.5282760801781393 l 18.676708914311938 -25.338542608068906" fill="#b5ff20" stroke="none" /><path d="M 86.96720088162412 116.46651593811092 l -18.87859410246587 23.8524869334532 a51.41944194419442,51.41944194419442 0 0,0 -0.6874270816473771,-0.5537425965652494 l 19.28527195446851 -23.52489604309454" fill="#c3ff1e" stroke="none" /><path d="M 86.40962598614128 116.0094264158162 l -20.412064900503086 24.04536112738551 a52.540954095409546,52.540954095409546 0 0,0 -0.682583353812628,-0.5895992437373779 l 20.82182773407858 -23.691417751183412" fill="#b4ff20" stroke="none" /><path d="M 86.13680546590413 115.77377054828092 l -20.82182773407858 23.691417751183412 a52.540954095409546,52.540954095409546 0 0,0 -0.6723615185478279,-0.6012298158723298 l 21.225454279449774 -23.330492405427698" fill="#b4ff20" stroke="none" /><path d="M 85.60350026404147 115.28858382429668 l -21.583951149290353 22.921408151818337 a52.484248424842484,52.484248424842484 0 0,0 -0.6506235201745967,-0.6232826146278121 l 21.974247155330264 -22.547513406884942" fill="#b5ff20" stroke="none" /><path d="M 82.98947788004972 112.3143062007846 l -25.53364601443482 18.484390615819194 a52.52205220522052,52.52205220522052 0 0,0 -0.5224316047567501,-0.7348654779926717 l 25.84719271772153 -18.043347911117017" fill="#b4ff20" stroke="none" /><path d="M 82.576782715395 111.72311816256416 l -26.137439670874585 17.586435887434984 a52.503150315031505,52.503150315031505 0 0,0 -0.49671870701277665,-0.7520954316833497 l 26.435482816808086 -17.135160577412574" fill="#b4ff20" stroke="none" /><path d="M 82.18462484594161 111.11811171558189 l -26.73642559873988 16.6855069911013 a52.515751575157516,52.515751575157516 0 0,0 -0.4707212770069613,-0.7688878299135364 l 27.018914840202246 -16.224082045063206" fill="#b4ff20" stroke="none" /><path d="M 81.99639281039703 110.81064883170644 l -27.00811159556402 16.217595007060382 a52.503150315031505,52.503150315031505 0 0,0 -0.4573431663632242,-0.7766686812510575 l 27.282528472057017 -15.751575157515767" fill="#b4ff20" stroke="none" /><line stroke="#e1ed5e" stroke-width="0.3" x1="26.387840678322732" x2="22.057713659400548" y1="142.50000000000003" y2="145.00000000000006" /><path d="M 25.521815274538298 143.00000000000003 a86.0,86.0 0 0,1 -11.493303480769221,-40.785679425670985" fill="none" id="id9" stroke="none" /><text fill="#e1ed5e" style="font-size:6.75px; font-family:Arial;" text-anchor="middle"><textPath startOffset="21.40746469413373" xlink:href="#id9">September</textPath></text><path d="M 81.81346652052679 110.50000000000001 l -27.293441483445836 15.757875787578772 a52.515751575157516,52.515751575157516 0 0,0 -0.4440497757416177,-0.7845934057077173 l 27.559924624208833 -15.287025611771933" fill="#b4ff20" stroke="none" /><path d="M 81.4637452351635 109.86951160357371 l -27.801601430968393 14.80278683056256 a52.496849684968495,52.496849684968495 0 0,0 -0.4167048212723441,-0.7990864393799226 l 28.051614321215684 -14.323354148078135" fill="#b5ff20" stroke="none" /><path d="M 81.29705330413844 109.54985784667822 l -28.057225766368962 14.326219391956528 a52.503150315031505,52.503150315031505 0 0,0 -0.40297439640161886,-0.8062187346496994 l 28.299020075982316 -13.842468801143076" fill="#b4ff20" stroke="none" /><path d="M 80.9802524753101 108.90220220490708 l -28.58383298865038 13.37867712102597 a52.55985598559856,52.55985598559856 0 0,0 -0.3754664248962263,-0.8204618992994496 l 28.80928387840166 -12.88602623951183" fill="#b4ff20" stroke="none" /><path d="M 80.5471966667186 107.91128576633889 l -29.217141760098006 11.88235719960772 a52.540954095409546,52.540954095409546 0 0,0 -0.332612574094656,-0.8384009653333571 l 29.416813009158787 -11.379055217060797" fill="#b4ff20" stroke="none" /><path d="M 80.41425534168474 107.57618678355246 l -29.399184076072984 11.372235967030594 a52.52205220522052,52.52205220522052 0 0,0 -0.3180568316000185,-0.8436835332438067 l 29.59007159148744 -10.865884153592642" fill="#b4ff20" stroke="none" /><path d="M 80.16572619554312 106.89939002012753 l -29.75438614529986 10.350120042195515 a52.503150315031505,52.503150315031505 0 0,0 -0.2888037749887378,-0.853797043686412 l 29.927675341860965 -9.837821324034941" fill="#b4ff20" stroke="none" /><path d="M 79.94057633289273 106.21446072829308 l -30.09214471513241 9.322623354775102 a52.503150315031505,52.503150315031505 0 0,0 -0.25932476009893607,-0.8632077855621066 l 30.247745795234977 -8.804677965622272" fill="#b4ff20" stroke="none" /><path d="M 79.56144815229197 104.8234425847677 l -18.390404137796693 4.340085302045707 a39.89558955895589,39.89558955895589 0 0,0 -0.15158260564562145,-0.6679009293423599 l 18.46219760499998 -4.02375003876432" fill="#ff960d" stroke="none" /><path d="M 79.48165901384964 104.47187691870673 l -30.916024132147353 6.738003566080168 a52.64176417641764,52.64176417641764 0 0,0 -0.18485353317204178,-0.8845910739605181 l 31.02713537614376 -6.20629604083424" fill="#b3ff20" stroke="none" /><path d="M 79.407916724674 104.11899336999214 l -18.5532631490561 3.7111722442503434 a39.92079207920792,39.92079207920792 0 0,0 -0.12864704833490964,-0.6731357179564714 l 18.614236489673164 -3.3921339612605577" fill="#ff960d" stroke="none" /><path d="M 79.34024301695615 103.76489593502545 l -18.614236489673164 3.3921339612605577 a39.92079207920792,39.92079207920792 0 0,0 -0.1170728221929803,-0.6752449275172892 l 18.66972412935838 -3.072096000822676" fill="#ff960d" stroke="none" /><line stroke="#e1ed5e" stroke-width="0.3" x1="15.003131293944662" x2="10.003315487706104" y1="100.72959589197737" y2="100.7725132973878" /><path d="M 14.003168132696942 100.73817937305945 a86.0,86.0 0 0,1 10.791469493833604,-42.45332614584628" fill="none" id="id10" stroke="none" /><text fill="#e1ed5e" style="font-size:6.75px; font-family:Arial;" text-anchor="middle"><textPath startOffset="22.145653131862435" xlink:href="#id10">October</textPath></text><path d="M 79.64726062577567 94.8264132398404 l -19.05817569365561 -4.844513734910923 a40.66426642664267,40.66426642664267 0 0,0 0.17778130539642995,-0.6750645738908037 l 18.972204907454454 5.1709588131745114" fill="#ffa20e" stroke="none" /><line stroke="#e1ed5e" stroke-width="0.3" x1="26.387840678322718" x2="22.05771365940052" y1="57.49999999999999" y2="54.99999999999999" /><path d="M 25.521815274538284 56.99999999999999 a86.0,86.0 0 0,1 29.574782752854787,-30.34633250058573" fill="none" id="id11" stroke="none" /><text fill="#e1ed5e" style="font-size:6.75px; font-family:Arial;" text-anchor="middle"><textPath startOffset="21.40746469413373" xlink:href="#id11">November</textPath></text><line stroke="#e1ed5e" stroke-width="0.3" x1="56.869717070023135" x2="54.33264160355391" y1="26.7553504044142" y2="22.446841604673864" /><path d="M 56.362301976729285 25.89364864446614 a86.0,86.0 0 0,1 42.16139366436587,-11.88097634709845" fill="none" id="id12" stroke="none" /><text fill="#e1ed5e" style="font-size:6.75px; font-family:Arial;" text-anchor="middle"><textPath startOffset="22.145653131862474" xlink:href="#id12">December</textPath></text></svg>